<?xml version="1.0" ?><!DOCTYPE svg  PUBLIC '-//W3C//DTD SVG 1.1//EN'  'http://www.w3.org/Graphics/SVG/1.1/DTD/svg11.dtd'><svg enable-background="new 0 0 512 512" id="Layer_1" version="1.1" viewBox="0 0 512 512" xml:space="preserve" xmlns="http://www.w3.org/2000/svg" xmlns:xlink="http://www.w3.org/1999/xlink"><g><path d="M256,393.6c-2.8,0-5.5-1.1-7.6-3.2L3,136.3c-4-4.2-3.9-10.9,0.3-14.9c4.2-4,10.9-3.9,14.9,0.3l245.5,254   c4,4.2,3.9,10.9-0.3,14.9C261.3,392.6,258.6,393.6,256,393.6z" fill="#6A6E7C"/><path d="M256,393.6c-2.6,0-5.3-1-7.3-3c-4.2-4-4.3-10.7-0.3-14.9l245.5-254c4-4.2,10.7-4.3,14.9-0.3   c4.2,4,4.3,10.7,0.3,14.9l-245.5,254C261.5,392.5,258.8,393.6,256,393.6z" fill="#6A6E7C"/></g></svg>